<svg width="181" height="26" viewBox="0 0 181 26" fill="none" xmlns="http://www.w3.org/2000/svg">
<path fill-rule="evenodd" clip-rule="evenodd" d="M23.535 0.764348H40.2195V4.82453H34.5546V20.727H40.2195V24.7871H23.535V20.727H29.1996V4.82453H23.535V0.764348Z" fill="#4F4A4A"/>
<path fill-rule="evenodd" clip-rule="evenodd" d="M60.0411 24.7871L54.1579 14.8681L51.8447 17.3969V24.7871H46.4713V0.764348H51.8447V11.4313L59.7861 0.764348H66.0338L57.655 11.0751L66.3798 24.7871H60.0411Z" fill="#4F4A4A"/>
<path fill-rule="evenodd" clip-rule="evenodd" d="M69.8076 24.7871V0.764348H87.4392V4.82453H75.1809V10.5942H86.3282V14.6544H75.1809V20.727H88.1861V24.7871H69.8076Z" fill="#4F4A4A"/>
<path fill-rule="evenodd" clip-rule="evenodd" d="M109.173 24.7871H104.656L103.49 20.0324C102.883 17.7886 102.336 15.5982 101.851 13.4613L101.213 16.0791L100.412 19.2312L98.9911 24.7871H94.4739L90.6304 0.764348H95.3481L96.9692 13.1408C97.1149 14.2805 97.2121 15.8595 97.2606 17.8776L97.5339 16.5242L98.2626 13.5326L100.066 7.49567H103.617L105.421 13.5326C105.578 14.0668 105.715 14.5921 105.83 15.1087C105.946 15.625 106.143 16.5485 106.422 17.8776L106.459 17.3969C106.532 15.4855 106.629 14.0668 106.75 13.1408L108.28 0.764348H112.998L109.173 24.7871Z" fill="#4F4A4A"/>
<path fill-rule="evenodd" clip-rule="evenodd" d="M116.807 0.764348H133.492V4.82453H127.827V20.727H133.492V24.7871H116.807V20.727H122.472V4.82453H116.807V0.764348Z" fill="#4F4A4A"/>
<path fill-rule="evenodd" clip-rule="evenodd" d="M142.041 15.8481C142.339 18.0063 143.086 21.2251 147.712 21.2251C150.099 21.2251 152.263 20.2703 152.263 17.9711C152.263 16.0607 150.883 15.0699 147.488 14.2205C142.676 13.0532 138.87 11.4262 138.87 6.82729C138.87 3.32506 141.817 0 147.488 0C151.816 0 155.546 2.22859 156.703 6.82729L152.039 7.7826C151.629 6.40292 150.323 4.59834 147.488 4.59834C145.175 4.59834 143.906 5.69553 143.906 6.82729C143.906 8.34848 146.145 9.02077 148.906 9.79874C152.636 10.931 157.3 12.1687 157.3 17.9711C157.3 22.5695 153.569 25.8243 147.712 25.8243C139.728 25.8243 137.788 20.589 137.378 16.6619L142.041 15.8481Z" fill="#4F4A4A"/>
<path fill-rule="evenodd" clip-rule="evenodd" d="M162.33 24.7871V0.764348H179.961V4.82453H167.703V10.5942H178.85V14.6544H167.703V20.727H180.708V24.7871H162.33Z" fill="#4F4A4A"/>
<path fill-rule="evenodd" clip-rule="evenodd" d="M0.23584 24.7028V0.679997H5.60913V20.6426H18.758V24.7028H0.23584Z" fill="#4F4A4A"/>
</svg>
